<svg xmlns="http://www.w3.org/2000/svg" width="480" height="480" viewBox="0 0 480 480" version="1.1"><path d="M 262.333 130.667 L 263 131.333 263.667 130.667 L 264.333 130 263 130 L 261.667 130 262.333 130.667 M 265.750 130.662 L 267 131.167 268.250 130.662 L 269.500 130.158 267 130.158 L 264.500 130.158 265.750 130.662 M 280 131 L 280 132.333 280.667 131.667 L 281.333 131 280.667 130.333 L 280 129.667 280 131 M 259.333 131.667 L 260 132.333 260.667 131.667 L 261.333 131 260 131 L 258.667 131 259.333 131.667 M 255 133.500 L 255 134 255.500 134 L 256 134 256 133.500 L 256 133 255.500 133 L 255 133 255 133.500 M 280 133.500 L 280 134 280.500 134 L 281 134 281 133.500 L 281 133 280.500 133 L 280 133 280 133.500 M 254 135.500 L 254 136 254.500 136 L 255 136 255 135.500 L 255 135 254.500 135 L 254 135 254 135.500 M 280 135.500 L 280 136 280.500 136 L 281 136 281 135.500 L 281 135 280.500 135 L 280 135 280 135.500 M 268 136.500 L 268 137 268.500 137 L 269 137 269 136.500 L 269 136 268.500 136 L 268 136 268 136.500 M 253 139.500 L 253 140 253.500 140 L 254 140 254 139.500 L 254 139 253.500 139 L 253 139 253 139.500 M 280 139.500 L 280 140 280.500 140 L 281 140 281 139.500 L 281 139 280.500 139 L 280 139 280 139.500 M 229.500 143 L 224.500 143.686 230.309 143.843 L 236.118 144 235.500 143 L 234.882 142 234.691 142.157 L 234.500 142.314 229.500 143 M 253 143 L 253 144.333 253.667 143.667 L 254.333 143 253.667 142.333 L 253 141.667 253 143 M 279 142.500 L 279 143 279.500 143 L 280 143 280 142.500 L 280 142 279.500 142 L 279 142 279 142.500 M 237 143.383 L 237 143.767 239 144.290 L 241 144.813 241 143.906 L 241 143 239 143 L 237 143 237 143.383 M 270 144 L 270 145 271.059 145 L 272.118 145 271.500 144 L 270.882 143 270.441 143 L 270 143 270 144 M 149 144.500 L 149 145 149.500 145 L 150 145 150 144.500 L 150 144 149.500 144 L 149 144 149 144.500 M 275.813 144.683 L 277.125 145.208 277.729 144.604 L 278.333 144 276.417 144.079 L 274.500 144.158 275.813 144.683 M 143 148 L 141.500 148.969 142.691 148.985 L 143.882 149 144.500 148 L 145.118 147 144.809 147.015 L 144.500 147.031 143 148 M 140.603 150.833 L 140.088 151.667 141.500 151.667 L 142.912 151.667 142.397 150.833 L 141.882 150 141.500 150 L 141.118 150 140.603 150.833 M 253.750 154.662 L 255 155.167 256.250 154.662 L 257.500 154.158 255 154.158 L 252.500 154.158 253.750 154.662 M 346 155 L 346 156.333 346.667 155.667 L 347.333 155 346.667 154.333 L 346 153.667 346 155 M 137.158 160 L 137.158 162.500 137.662 161.250 L 138.167 160 137.662 158.750 L 137.158 157.500 137.158 160 M 161.750 158.743 L 169 159.088 176.250 158.743 L 183.500 158.397 169 158.397 L 154.500 158.397 161.750 158.743 M 193.250 158.745 L 202 159.078 210.750 158.745 L 219.500 158.411 202 158.411 L 184.500 158.411 193.250 158.745 M 153 159.500 L 153 160 153.500 160 L 154 160 154 159.500 L 154 159 153.500 159 L 153 159 153 159.500 M 143.783 164.282 L 138.065 168.500 138.033 169.424 L 138 170.349 140.250 168.305 L 142.500 166.261 146.900 163.131 L 151.300 160 150.400 160.032 L 149.500 160.064 143.783 164.282 M 137 163.500 L 137 164 137.500 164 L 138 164 138 163.500 L 138 163 137.500 163 L 137 163 137 163.500 M 138 165.500 L 138 166 138.500 166 L 139 166 139 165.500 L 139 165 138.500 165 L 138 165 138 165.500 M 284.667 167.667 L 284 168.333 284 172.631 L 284 176.930 285.934 177.965 L 287.869 179 291.363 179 L 294.857 179 296.429 177.429 L 298 175.857 297.986 173.679 L 297.973 171.500 297.370 169.250 L 296.767 167 291.050 167 L 285.333 167 284.667 167.667 M 304.200 168.200 L 303 169.400 303 173 L 303 176.600 304.200 177.800 L 305.400 179 310 179 L 314.600 179 315.800 177.800 L 317 176.600 317 173.382 L 317 170.164 316.393 168.582 L 315.786 167 310.593 167 L 305.400 167 304.200 168.200 M 322.667 167.667 L 322 168.333 322 173.042 L 322 177.750 325.125 178.375 L 328.250 179 330.925 179 L 333.600 179 334.800 177.800 L 336 176.600 336 173.382 L 336 170.164 335.393 168.582 L 334.786 167 329.060 167 L 323.333 167 322.667 167.667 M 266.026 185.186 L 264 185.936 264 189.386 L 264 192.836 264.607 194.418 L 265.214 196 271.499 196 L 277.783 196 278.443 193.372 L 279.103 190.743 278.472 187.872 L 277.841 185 275.671 184.919 L 273.500 184.838 270.776 184.637 L 268.053 184.436 266.026 185.186 M 284.682 185.235 L 282.864 186.573 283.182 191.036 L 283.500 195.500 289.909 195.802 L 296.318 196.104 297.144 194.802 L 297.969 193.500 297.969 190.500 L 297.969 187.500 297.056 186.057 L 296.143 184.614 291.322 184.256 L 286.500 183.898 284.682 185.235 M 304.250 184.631 L 303 185.167 303 190.483 L 303 195.799 307.750 196.225 L 312.500 196.651 314.750 195.850 L 317 195.050 317 190.025 L 317 185 316.250 184.955 L 315.500 184.910 310.500 184.503 L 305.500 184.096 304.250 184.631 M 323.250 184.662 L 322 185.167 322 190.456 L 322 195.744 325.750 196.344 L 329.500 196.944 332 196.310 L 334.500 195.675 335.235 194.588 L 335.969 193.500 335.985 189.785 L 336 186.070 334.066 185.035 L 332.131 184 328.316 184.079 L 324.500 184.158 323.250 184.662 M 265.650 202.758 L 265.182 203.515 264.508 207.104 L 263.835 210.692 265.489 212.346 L 267.143 214 271.321 213.985 L 275.500 213.969 276.624 213.235 L 277.749 212.500 278.449 209.272 L 279.149 206.045 278.507 204.022 L 277.865 202 271.992 202 L 266.118 202 265.650 202.758 M 284.710 202.623 L 284 203.333 284 207.085 L 284 210.836 284.607 212.418 L 285.214 214 289.985 214 L 294.755 214 295.939 212.574 L 297.122 211.148 296.811 206.824 L 296.500 202.500 290.960 202.206 L 285.421 201.913 284.710 202.623 M 160.455 267.455 L 158 269.909 158 273.309 L 158 276.708 160.452 279.354 L 162.905 282 165.730 282 L 168.555 282 170.841 280.399 L 173.126 278.798 174.057 276.351 L 174.987 273.904 173.578 270.533 L 172.169 267.161 170.150 266.080 L 168.131 265 165.520 265 L 162.909 265 160.455 267.455 M 382 285.500 L 382 286 382.500 286 L 383 286 383 285.500 L 383 285 382.500 285 L 382 285 382 285.500 M 382 292.500 L 382 293 382.500 293 L 383 293 383 292.500 L 383 292 382.500 292 L 382 292 382 292.500 M 342.872 296.750 L 341.500 298.500 343.250 297.128 L 345 295.755 345 295.378 L 345 295 344.622 295 L 344.245 295 342.872 296.750 M 377.924 297.750 L 375.500 300.500 378.250 298.076 L 381 295.651 381 295.326 L 381 295 380.674 295 L 380.349 295 377.924 297.750 M 339 300.500 L 339 301 339.500 301 L 340 301 340 300.500 L 340 300 339.500 300 L 339 300 339 300.500 M 336 304.500 L 336 305 336.500 305 L 337 305 337 304.500 L 337 304 336.500 304 L 336 304 336 304.500 M 369.405 306.155 L 368.691 307.309 369.845 306.595 L 371 305.882 371 305.441 L 371 305 370.559 305 L 370.118 305 369.405 306.155 M 365 311.500 L 365 312 365.500 312 L 366 312 366 311.500 L 366 311 365.500 311 L 365 311 365 311.500 M 277 312.500 L 277 313 277.500 313 L 278 313 278 312.500 L 278 312 277.500 312 L 277 312 277 312.500 M 279 312.500 L 279 313 279.500 313 L 280 313 280 312.500 L 280 312 279.500 312 L 279 312 279 312.500 M 326.872 313.750 L 325.500 315.500 327.250 314.128 L 329 312.755 329 312.378 L 329 312 328.622 312 L 328.245 312 326.872 313.750 M 285 313.500 L 285 314 285.500 314 L 286 314 286 313.500 L 286 313 285.500 313 L 285 313 285 313.500 M 363 313.500 L 363 314 363.500 314 L 364 314 364 313.500 L 364 313 363.500 313 L 363 313 363 313.500 M 359.872 316.750 L 358.500 318.500 360.250 317.128 L 362 315.755 362 315.378 L 362 315 361.622 315 L 361.245 315 359.872 316.750 M 288 316.500 L 288 317 288.500 317 L 289 317 289 316.500 L 289 316 288.500 316 L 288 316 288 316.500 M 324 316.500 L 324 317 324.500 317 L 325 317 325 316.500 L 325 316 324.500 316 L 324 316 324 316.500 M 291.500 320 L 293.310 322 293.810 322 L 294.310 322 292.500 320 L 290.690 318 290.190 318 L 289.690 318 291.500 320 M 269 319.500 L 269 320 269.500 320 L 270 320 270 319.500 L 270 319 269.500 319 L 269 319 269 319.500 M 356.405 320.155 L 355.691 321.309 356.845 320.595 L 358 319.882 358 319.441 L 358 319 357.559 319 L 357.118 319 356.405 320.155 M 354 322.500 L 354 323 354.500 323 L 355 323 355 322.500 L 355 322 354.500 322 L 354 322 354 322.500 M 266 323.500 L 266 324 266.500 324 L 267 324 267 323.500 L 267 323 266.500 323 L 266 323 266 323.500 M 294 323.500 L 294 324 294.500 324 L 295 324 295 323.500 L 295 323 294.500 323 L 294 323 294 323.500 M 318 323.500 L 318 324 318.500 324 L 319 324 319 323.500 L 319 323 318.500 323 L 318 323 318 323.500 M 296 324.500 L 296 325 296.500 325 L 297 325 297 324.500 L 297 324 296.500 324 L 296 324 296 324.500 M 352 324.500 L 352 325 352.500 325 L 353 325 353 324.500 L 353 324 352.500 324 L 352 324 352 324.500 M 298.500 327 L 299.118 328 299.618 328 L 300.118 328 299.500 327 L 298.882 326 298.382 326 L 297.882 326 298.500 327 M 311.872 329.750 L 310.500 331.500 312.250 330.128 L 314 328.755 314 328.378 L 314 328 313.622 328 L 313.245 328 311.872 329.750 M 348 328.500 L 348 329 348.500 329 L 349 329 349 328.500 L 349 328 348.500 328 L 348 328 348 328.500 M 302 331.500 L 302 332 302.500 332 L 303 332 303 331.500 L 303 331 302.500 331 L 302 331 302 331.500 M 335.390 341.809 L 325.280 352.500 322.514 356 L 319.749 359.500 324.551 354.500 L 329.352 349.500 337.003 341.500 L 344.654 333.500 345.386 332.250 L 346.118 331 345.809 331.059 L 345.500 331.118 335.390 341.809 M 279.500 345 L 280.118 346 280.618 346 L 281.118 346 280.500 345 L 279.882 344 279.382 344 L 278.882 344 279.500 345 M 283 348.378 L 283 348.755 284.750 350.128 L 286.500 351.500 285.128 349.750 L 283.755 348 283.378 348 L 283 348 283 348.378 M 287.500 353 L 288.118 354 288.618 354 L 289.118 354 288.500 353 L 287.882 352 287.382 352 L 286.882 352 287.500 353 M 313.808 364.523 L 309.116 369 309.850 369 L 310.584 369 315 364.500 L 319.416 360 318.958 360.023 L 318.500 360.046 313.808 364.523 M 297 363.500 L 297 364 297.500 364 L 298 364 298 363.500 L 298 363 297.500 363 L 297 363 297 363.500 M 299 365.378 L 299 365.755 300.750 367.128 L 302.500 368.500 301.128 366.750 L 299.755 365 299.378 365 L 299 365 299 365.378 M 303.333 368.667 L 304 369.333 304.667 368.667 L 305.333 368 304 368 L 302.667 368 303.333 368.667 M 307 369.500 L 307 370 307.500 370 L 308 370 308 369.500 L 308 369 307.500 369 L 307 369 307 369.500" stroke="none" fill="#e1e9dc" fill-rule="evenodd"/><path d="M 260.646 131.236 L 261.328 132.340 259.543 131.655 L 257.758 130.970 255.258 133.469 L 252.759 135.969 253.286 137.986 L 253.813 140.003 252.907 139.442 L 252 138.882 252.015 141.691 L 252.031 144.500 253.046 143 L 254.061 141.500 253.316 144.500 L 252.571 147.500 252.536 150.500 L 252.500 153.500 255 153.903 L 257.500 154.305 255 155.053 L 252.500 155.801 299.143 155.900 L 345.786 156 346.512 154.250 L 347.239 152.500 347.613 149.500 L 347.987 146.500 347.398 141.062 L 346.809 135.624 343.799 132.812 L 340.788 130 335.894 130 L 331 130 331 135.800 L 331 141.600 329.800 142.800 L 328.600 144 326.357 144 L 324.113 144 322.557 141.777 L 321 139.555 321 134.777 L 321 130 301.107 130 L 281.214 130 280.782 131.250 L 280.349 132.500 280.425 136.250 L 280.500 140 279.643 140 L 278.786 140 279.357 141.488 L 279.928 142.976 278.714 142.738 L 277.500 142.500 277.707 143.621 L 277.914 144.741 273.985 144.638 L 270.057 144.535 269.384 141.518 L 268.711 138.500 268.848 134.750 L 268.986 131 267.243 130.931 L 265.500 130.862 262.732 130.497 L 259.964 130.133 260.646 131.236 M 254 135.500 L 254 136 254.500 136 L 255 136 255 135.500 L 255 135 254.500 135 L 254 135 254 135.500 M 154.500 142.675 L 152.500 143.117 151.240 143.531 L 149.979 143.945 149.479 143.952 L 148.979 143.959 145.990 145.505 L 143 147.051 143 147.585 L 143 148.118 144.155 147.405 L 145.309 146.691 144.595 147.845 L 143.882 149 142.464 149 L 141.046 149 139.365 151.565 L 137.684 154.131 137.442 161.065 L 137.201 168 138.659 168 L 140.118 168 139.387 169.250 L 138.656 170.500 140.828 168.595 L 143 166.690 143 166.223 L 143 165.755 141.500 167 L 140 168.245 140 167.708 L 140 167.170 144.884 163.585 L 149.768 160 150.575 160 L 151.382 160 149.441 161.516 L 147.500 163.033 150.250 161.856 L 153 160.679 153 159.933 L 153 159.187 155.250 159.680 L 157.500 160.173 156 159.027 L 154.500 157.881 198.250 158.364 L 242 158.847 242 151.942 L 242 145.038 239.286 144.357 L 236.573 143.676 238.536 142.908 L 240.500 142.141 237.691 142.070 L 234.882 142 235.500 143 L 236.118 144 230.309 143.843 L 224.500 143.686 229.500 143 L 234.500 142.314 195.500 142.273 L 156.500 142.232 154.500 142.675 M 140.603 150.833 L 140.088 151.667 141.500 151.667 L 142.912 151.667 142.397 150.833 L 141.882 150 141.500 150 L 141.118 150 140.603 150.833 M 146 163.500 L 146 164 146.500 164 L 147 164 147 163.500 L 147 163 146.500 163 L 146 163 146 163.500 M 138 165.500 L 138 166 138.500 166 L 139 166 139 165.500 L 139 165 138.500 165 L 138 165 138 165.500 M 354.888 283.656 L 344.074 294.311 344.497 294.995 L 344.919 295.678 340.478 299.464 L 336.037 303.250 336.679 304.375 L 337.321 305.500 336.473 304.730 L 335.626 303.959 331.854 307.642 L 328.083 311.325 328.493 311.989 L 328.903 312.653 323.446 317.413 L 317.989 322.174 318.655 323.337 L 319.321 324.500 318.491 323.748 L 317.662 322.996 315.831 324.653 L 314 326.310 314 327.536 L 314 328.763 310.438 331.480 L 306.875 334.197 305.106 332.596 L 303.338 330.996 302.509 331.748 L 301.679 332.500 302.308 331.397 L 302.936 330.294 299.468 327.403 L 296 324.511 296 323.256 L 296 322 294.655 322 L 293.310 322 291.405 319.828 L 289.500 317.656 291 318.520 L 292.500 319.384 291.137 317.703 L 289.773 316.022 288.732 316.666 L 287.691 317.309 288.334 316.268 L 288.978 315.227 287.489 313.991 L 286 312.755 286 313.449 L 286 314.143 284.429 312.571 L 282.857 311 280.429 311 L 278 311 278 312.059 L 278 313.118 277.089 312.555 L 276.177 311.992 273.339 315.120 L 270.500 318.248 268.284 320.275 L 266.068 322.301 266.593 323.151 L 267.118 324 266.059 324 L 265 324 265 327.219 L 265 330.439 273 338.300 L 281 346.162 281 346.885 L 281 347.608 284.650 351.054 L 288.300 354.500 287.496 353.095 L 286.691 351.691 287.862 352.415 L 289.033 353.138 288.533 353.947 L 288.032 354.757 292.996 359.400 L 297.960 364.043 298.230 364.771 L 298.500 365.500 299.243 365.252 L 299.986 365.005 301.171 366.903 L 302.356 368.800 303.842 368.230 L 305.328 367.660 304.646 368.764 L 303.964 369.867 306.948 369.782 L 309.931 369.698 309.302 368.679 L 308.672 367.660 310.204 368.248 L 311.737 368.836 316.334 364.168 L 320.932 359.500 321.216 358.500 L 321.500 357.500 322.324 357.775 L 323.149 358.050 322.616 357.187 L 322.083 356.325 325.001 352.913 L 327.919 349.500 327.959 350.466 L 328 351.432 333.454 346.046 L 338.908 340.660 338.543 340.070 L 338.179 339.481 342.172 334.990 L 346.165 330.500 345.411 332 L 344.656 333.500 346.805 331.616 L 348.953 329.733 348.322 328.712 L 347.691 327.691 348.712 328.322 L 349.733 328.953 351.369 327.145 L 353.004 325.338 352.252 324.586 L 351.500 323.833 353 324.167 L 354.500 324.500 354.225 323.176 L 353.950 321.851 354.830 322.395 L 355.709 322.938 358.029 320.469 L 360.349 318 359.424 317.996 L 358.500 317.992 364 313.007 L 369.500 308.023 369.545 306.761 L 369.591 305.500 370.636 305.697 L 371.680 305.893 376.590 300.716 L 381.500 295.539 378.952 297.519 L 376.404 299.500 379.452 296.535 L 382.500 293.569 382.250 292.785 L 382 292 383 292 L 384 292 384 289 L 384 286 382.833 286 L 381.667 286 382.360 285.306 L 383.054 284.613 377.308 278.806 L 371.563 273 368.632 273 L 365.701 273 354.888 283.656 M 370 306.500 L 370 307 370.500 307 L 371 307 371 306.500 L 371 306 370.500 306 L 370 306 370 306.500 M 279 312.500 L 279 313 279.500 313 L 280 313 280 312.500 L 280 312 279.500 312 L 279 312 279 312.500 M 356.405 320.155 L 355.691 321.309 356.845 320.595 L 358 319.882 358 319.441 L 358 319 357.559 319 L 357.118 319 356.405 320.155 M 294 323.500 L 294 324 294.500 324 L 295 324 295 323.500 L 295 323 294.500 323 L 294 323 294 323.500 M 343 335 L 343 336.333 343.667 335.667 L 344.333 335 343.667 334.333 L 343 333.667 343 335 M 332.462 345.250 L 327.500 350.500 332.750 345.538 L 338 340.575 338 340.288 L 338 340 337.712 340 L 337.425 340 332.462 345.250 M 283 348.378 L 283 348.755 284.750 350.128 L 286.500 351.500 285.128 349.750 L 283.755 348 283.378 348 L 283 348 283 348.378 M 314.453 364.250 L 310.500 368.500 314.750 364.547 L 319 360.594 319 360.297 L 319 360 318.703 360 L 318.406 360 314.453 364.250" stroke="none" fill="#f0a355" fill-rule="evenodd"/><path d="M 271.223 119.557 L 269 121.113 269 124.990 L 269 128.867 266.250 129.284 L 263.500 129.700 266.250 129.850 L 269 130 269 135.800 L 269 141.600 270.200 142.800 L 271.400 144 274.177 144 L 276.954 144 278.595 141.496 L 280.236 138.991 279.521 130.246 L 278.807 121.500 277.248 119.750 L 275.690 118 274.568 118 L 273.445 118 271.223 119.557 M 323.223 119.557 L 321 121.113 321 130.334 L 321 139.555 322.557 141.777 L 324.113 144 326.357 144 L 328.600 144 329.800 142.800 L 331 141.600 331 131.357 L 331 121.113 328.777 119.557 L 326.555 118 326 118 L 325.445 118 323.223 119.557 M 259 130.500 L 259 131 259.500 131 L 260 131 260 130.500 L 260 130 259.500 130 L 259 130 259 130.500 M 342 131.500 L 342 132 342.500 132 L 343 132 343 131.500 L 343 131 342.500 131 L 342 131 342 131.500 M 252 138.500 L 252 139 252.500 139 L 253 139 253 138.500 L 253 138 252.500 138 L 252 138 252 138.500 M 347 140.500 L 347 141 347.500 141 L 348 141 348 140.500 L 348 140 347.500 140 L 347 140 347 140.500 M 155 142.500 L 155 143 155.500 143 L 156 143 156 142.500 L 156 142 155.500 142 L 155 142 155 142.500 M 240 142.500 L 240 143 240.500 143 L 241 143 241 142.500 L 241 142 240.500 142 L 240 142 240 142.500 M 150 143.500 L 150 144 150.500 144 L 151 144 151 143.500 L 151 143 150.500 143 L 150 143 150 143.500 M 147 144.500 L 147 145 147.500 145 L 148 145 148 144.500 L 148 144 147.500 144 L 147 144 147 144.500 M 241 144.500 L 241 145 241.500 145 L 242 145 242 144.500 L 242 144 241.500 144 L 241 144 241 144.500 M 252.158 146 L 252.158 148.500 252.662 147.250 L 253.167 146 252.662 144.750 L 252.158 143.500 252.158 146 M 347.079 150.583 L 347.158 152.500 347.683 151.188 L 348.208 149.875 347.604 149.271 L 347 148.667 347.079 150.583 M 252 154 L 252 155.333 252.667 154.667 L 253.333 154 252.667 153.333 L 252 152.667 252 154 M 253 186.577 L 253 217.154 255.923 220.077 L 258.846 223 299.201 223 L 339.555 223 342.027 221.296 L 344.500 219.592 345.718 218.046 L 346.936 216.500 346.968 186.250 L 347 156 300 156 L 253 156 253 186.577 M 136.195 161.500 L 136.232 164.500 136.693 162.731 L 137.154 160.962 136.656 159.731 L 136.158 158.500 136.195 161.500 M 145 164.500 L 145 165 145.500 165 L 146 165 146 164.500 L 146 164 145.500 164 L 145 164 145 164.500 M 284.667 167.667 L 284 168.333 284 172.631 L 284 176.930 285.934 177.965 L 287.869 179 291.363 179 L 294.857 179 296.429 177.429 L 298 175.857 297.986 173.679 L 297.973 171.500 297.370 169.250 L 296.767 167 291.050 167 L 285.333 167 284.667 167.667 M 304.200 168.200 L 303 169.400 303 173 L 303 176.600 304.200 177.800 L 305.400 179 310 179 L 314.600 179 315.800 177.800 L 317 176.600 317 173.382 L 317 170.164 316.393 168.582 L 315.786 167 310.593 167 L 305.400 167 304.200 168.200 M 322.667 167.667 L 322 168.333 322 173.042 L 322 177.750 325.125 178.375 L 328.250 179 330.925 179 L 333.600 179 334.800 177.800 L 336 176.600 336 173.382 L 336 170.164 335.393 168.582 L 334.786 167 329.060 167 L 323.333 167 322.667 167.667 M 137 168.500 L 137 169 137.500 169 L 138 169 138 168.500 L 138 168 137.500 168 L 137 168 137 168.500 M 153.321 171.607 L 150.142 173.181 148.506 176.629 L 146.870 180.076 148.038 183.615 L 149.206 187.155 152.353 189.080 L 155.500 191.005 198.500 190.752 L 241.500 190.500 241.500 180.500 L 241.500 170.500 199 170.267 L 156.500 170.034 153.321 171.607 M 128.917 183.415 L 128.500 183.830 129 214.165 L 129.500 244.500 150.500 245 L 171.500 245.500 176.343 247.974 L 181.186 250.448 184.107 254.136 L 187.028 257.824 188.567 261.507 L 190.106 265.189 190.158 273.120 L 190.210 281.050 187.554 286.479 L 184.898 291.908 181.699 294.612 L 178.500 297.316 174 299.408 L 169.500 301.500 149.601 301.500 L 129.703 301.500 128.922 303.500 L 128.141 305.500 128.076 321 L 128.011 336.500 129.055 340.259 L 130.099 344.019 132.755 345.759 L 135.412 347.500 198.700 347.813 L 261.988 348.126 263.034 347.479 L 264.081 346.832 260.597 342.976 L 257.113 339.119 255.557 336.109 L 254 333.099 254 326.745 L 254 320.392 256.876 315.946 L 259.752 311.500 263.901 307.263 L 268.049 303.026 271.275 301.305 L 274.500 299.584 280.500 299.584 L 286.500 299.584 289.678 301.281 L 292.857 302.977 299.777 310.120 L 306.697 317.263 313.599 309.890 L 320.500 302.518 329.107 293.509 L 337.715 284.500 342.357 279.571 L 347 274.642 347 256.877 L 347 239.112 344.587 236.306 L 342.174 233.500 298.979 233.265 L 255.784 233.031 251.655 230.753 L 247.525 228.475 245.261 224.371 L 242.997 220.267 242.416 213.883 L 241.835 207.500 240.813 204.790 L 239.790 202.080 196.645 201.790 L 153.500 201.500 149.294 199.252 L 145.089 197.005 139.502 190.002 L 133.915 183 131.624 183 L 129.333 183 128.917 183.415 M 266.026 185.186 L 264 185.936 264 189.386 L 264 192.836 264.607 194.418 L 265.214 196 271.499 196 L 277.783 196 278.443 193.372 L 279.103 190.743 278.472 187.872 L 277.841 185 275.671 184.919 L 273.500 184.838 270.776 184.637 L 268.053 184.436 266.026 185.186 M 284.682 185.235 L 282.864 186.573 283.182 191.036 L 283.500 195.500 289.909 195.802 L 296.318 196.104 297.144 194.802 L 297.969 193.500 297.969 190.500 L 297.969 187.500 297.056 186.057 L 296.143 184.614 291.322 184.256 L 286.500 183.898 284.682 185.235 M 304.250 184.631 L 303 185.167 303 190.483 L 303 195.799 307.750 196.225 L 312.500 196.651 314.750 195.850 L 317 195.050 317 190.025 L 317 185 316.250 184.955 L 315.500 184.910 310.500 184.503 L 305.500 184.096 304.250 184.631 M 323.250 184.662 L 322 185.167 322 190.456 L 322 195.744 325.750 196.344 L 329.500 196.944 332 196.310 L 334.500 195.675 335.235 194.588 L 335.969 193.500 335.985 189.785 L 336 186.070 334.066 185.035 L 332.131 184 328.316 184.079 L 324.500 184.158 323.250 184.662 M 265.650 202.758 L 265.182 203.515 264.508 207.104 L 263.835 210.692 265.489 212.346 L 267.143 214 271.321 213.985 L 275.500 213.969 276.624 213.235 L 277.749 212.500 278.449 209.272 L 279.149 206.045 278.507 204.022 L 277.865 202 271.992 202 L 266.118 202 265.650 202.758 M 284.710 202.623 L 284 203.333 284 207.085 L 284 210.836 284.607 212.418 L 285.214 214 289.985 214 L 294.755 214 295.939 212.574 L 297.122 211.148 296.811 206.824 L 296.500 202.500 290.960 202.206 L 285.421 201.913 284.710 202.623 M 124.685 255.925 L 120.870 256.706 118.287 258.635 L 115.703 260.564 113.851 264.017 L 112 267.469 112 274.087 L 112 280.704 114.270 284.102 L 116.540 287.500 120.020 289.248 L 123.500 290.997 145.538 290.998 L 167.576 291 172.034 288.750 L 176.492 286.500 178.729 282.500 L 180.967 278.500 180.962 274 L 180.956 269.500 179.057 265.316 L 177.157 261.132 172.904 258.316 L 168.651 255.500 148.575 255.322 L 128.500 255.144 124.685 255.925 M 160.455 267.455 L 158 269.909 158 273.309 L 158 276.708 160.452 279.354 L 162.905 282 165.730 282 L 168.555 282 170.841 280.399 L 173.126 278.798 174.057 276.351 L 174.987 273.904 173.578 270.533 L 172.169 267.161 170.150 266.080 L 168.131 265 165.520 265 L 162.909 265 160.455 267.455 M 383 292.500 L 383 293 383.500 293 L 384 293 384 292.500 L 384 292 383.500 292 L 383 292 383 292.500 M 340.924 297.750 L 338.500 300.500 341.250 298.076 L 344 295.651 344 295.326 L 344 295 343.674 295 L 343.349 295 340.924 297.750 M 381 295.500 L 381 296 381.500 296 L 382 296 382 295.500 L 382 295 381.500 295 L 381 295 381 295.500 M 325.405 314.250 L 323.500 316.500 325.750 314.595 L 328 312.690 328 312.345 L 328 312 327.655 312 L 327.310 312 325.405 314.250 M 274 313.500 L 274 314 274.500 314 L 275 314 275 313.500 L 275 313 274.500 313 L 274 313 274 313.500 M 272 315.500 L 272 316 272.500 316 L 273 316 273 315.500 L 273 315 272.500 315 L 272 315 272 315.500 M 360.405 317.155 L 359.691 318.309 360.845 317.595 L 362 316.882 362 316.441 L 362 316 361.559 316 L 361.118 316 360.405 317.155 M 270 317.500 L 270 318 270.500 318 L 271 318 271 317.500 L 271 317 270.500 317 L 270 317 270 317.500 M 292 319.378 L 292 319.755 293.750 321.128 L 295.500 322.500 294.128 320.750 L 292.755 319 292.378 319 L 292 319 292 319.378 M 296 323.500 L 296 324 296.500 324 L 297 324 297 323.500 L 297 323 296.500 323 L 296 323 296 323.500 M 312.405 328.155 L 311.691 329.309 312.845 328.595 L 314 327.882 314 327.441 L 314 327 313.559 327 L 313.118 327 312.405 328.155 M 340.405 338.250 L 338.500 340.500 340.750 338.595 L 343 336.690 343 336.345 L 343 336 342.655 336 L 342.310 336 340.405 338.250 M 277.500 344 L 278.118 345 278.618 345 L 279.118 345 278.500 344 L 277.882 343 277.382 343 L 276.882 343 277.500 344 M 321 358.500 L 321 359 321.500 359 L 322 359 322 358.500 L 322 358 321.500 358 L 321 358 321 358.500 M 299.500 367 L 300.118 368 300.618 368 L 301.118 368 300.500 367 L 299.882 366 299.382 366 L 298.882 366 299.500 367 M 303 369.500 L 303 370 303.500 370 L 304 370 304 369.500 L 304 369 303.500 369 L 303 369 303 369.500" stroke="none" fill="#4eadb2" fill-rule="evenodd"/><path d="M 91 25.427 L 85.500 26.650 81.500 27.933 L 77.500 29.217 70.149 33.121 L 62.797 37.026 56.994 41.586 L 51.190 46.145 47.197 50.881 L 43.204 55.617 39.218 61.783 L 35.233 67.950 32.583 74.570 L 29.933 81.189 28.466 88.160 L 27 95.131 27 240 L 27 384.869 28.466 391.840 L 29.933 398.811 32.609 405.495 L 35.284 412.179 40.098 419.552 L 44.911 426.925 50.920 432.842 L 56.929 438.759 62.460 442.430 L 67.991 446.101 74.245 449.012 L 80.500 451.923 86.500 453.707 L 92.500 455.491 235 455.786 L 377.500 456.081 386.802 453.957 L 396.104 451.832 404.149 447.805 L 412.194 443.779 417.847 439.284 L 423.500 434.790 427.314 430.645 L 431.127 426.500 435.921 419.339 L 440.716 412.179 443.391 405.495 L 446.067 398.811 447.534 391.840 L 449 384.869 449 240 L 449 95.131 447.534 88.160 L 446.067 81.189 443.391 74.505 L 440.716 67.821 435.921 60.661 L 431.127 53.500 427.314 49.355 L 423.500 45.210 418 40.852 L 412.500 36.493 405.239 32.686 L 397.977 28.879 388.360 26.440 L 378.744 24 237.622 24.102 L 96.500 24.205 91 25.427 M 271.223 119.557 L 269 121.113 269 124.963 L 269 128.812 263.895 129.515 L 258.789 130.217 255.645 133.024 L 252.500 135.832 252.500 145.166 L 252.501 154.500 252.750 185.827 L 253 217.154 255.923 220.077 L 258.846 223 299.019 223 L 339.191 223 341.928 221.384 L 344.664 219.767 345.710 218.092 L 346.756 216.417 347.021 178.459 L 347.286 140.500 347.143 138.173 L 347 135.846 344.077 132.923 L 341.154 130 336.077 130 L 331 130 331 125.523 L 331 121.046 328.500 119.408 L 326 117.770 323.500 119.408 L 321 121.046 321 125.523 L 321 130 300 130 L 279 130 279 125.655 L 279 121.310 277.171 119.655 L 275.343 118 274.394 118 L 273.445 118 271.223 119.557 M 151.195 143.177 L 146.889 144.140 142.543 148.320 L 138.196 152.500 137.076 156.688 L 135.956 160.875 136.610 164.960 L 137.263 169.044 138.161 169.600 L 139.060 170.155 142.558 167.084 L 146.056 164.012 150.278 161.756 L 154.500 159.500 198.250 159.210 L 242 158.921 242 152.042 L 242 145.164 241.393 143.582 L 240.786 142 198.143 142.107 L 155.500 142.214 151.195 143.177 M 153.321 171.607 L 150.142 173.181 148.506 176.629 L 146.870 180.076 148.038 183.615 L 149.206 187.155 152.353 189.080 L 155.500 191.005 198.500 190.752 L 241.500 190.500 241.500 180.500 L 241.500 170.500 199 170.267 L 156.500 170.034 153.321 171.607 M 128.917 183.415 L 128.500 183.830 129 214.165 L 129.500 244.500 150.500 245 L 171.500 245.500 176.343 247.974 L 181.186 250.448 184.107 254.136 L 187.028 257.824 188.567 261.507 L 190.106 265.189 190.158 273.120 L 190.210 281.050 187.554 286.479 L 184.898 291.908 181.699 294.612 L 178.500 297.316 174 299.408 L 169.500 301.500 149.601 301.500 L 129.703 301.500 128.922 303.500 L 128.141 305.500 128.076 321 L 128.011 336.500 129.055 340.259 L 130.099 344.019 132.755 345.759 L 135.412 347.500 198.700 347.813 L 261.988 348.126 263.034 347.479 L 264.081 346.832 260.597 342.976 L 257.113 339.119 255.557 336.109 L 254 333.099 254 326.745 L 254 320.392 256.876 315.946 L 259.752 311.500 263.901 307.263 L 268.049 303.026 271.275 301.305 L 274.500 299.584 280.500 299.584 L 286.500 299.584 289.678 301.281 L 292.857 302.977 299.777 310.120 L 306.697 317.263 313.599 309.890 L 320.500 302.518 329.107 293.509 L 337.715 284.500 342.357 279.571 L 347 274.642 347 256.877 L 347 239.112 344.587 236.306 L 342.174 233.500 298.979 233.265 L 255.784 233.031 251.655 230.753 L 247.525 228.475 245.261 224.371 L 242.997 220.267 242.416 213.883 L 241.835 207.500 240.813 204.790 L 239.790 202.080 196.645 201.790 L 153.500 201.500 149.294 199.252 L 145.089 197.005 139.502 190.002 L 133.915 183 131.624 183 L 129.333 183 128.917 183.415 M 124.685 255.925 L 120.870 256.706 118.287 258.635 L 115.703 260.564 113.851 264.017 L 112 267.469 112 274.087 L 112 280.704 114.270 284.102 L 116.540 287.500 120.020 289.248 L 123.500 290.997 145.538 290.998 L 167.576 291 172.034 288.750 L 176.492 286.500 178.729 282.500 L 180.967 278.500 180.962 274 L 180.956 269.500 179.057 265.316 L 177.157 261.132 172.904 258.316 L 168.651 255.500 148.575 255.322 L 128.500 255.144 124.685 255.925 M 358.281 280.250 L 350.775 287.500 332.051 307.500 L 313.326 327.500 310.184 331 L 307.042 334.500 296.271 323.294 L 285.500 312.087 282.822 311.453 L 280.144 310.819 277.822 311.550 L 275.500 312.281 270.719 317.390 L 265.938 322.500 265.325 324.890 L 264.713 327.281 265.606 329.613 L 266.500 331.945 281.486 347.723 L 296.473 363.500 299.807 366.750 L 303.142 370 306.787 370 L 310.432 370 317.478 362.750 L 324.524 355.500 354.262 324.232 L 384 292.964 384 289.395 L 384 285.827 377.841 279.413 L 371.683 273 368.735 273 L 365.787 273 358.281 280.250" stroke="none" fill="#1b2d3e" fill-rule="evenodd"/></svg>